Coordinates
version=1
nRows=21
nColumns=34
inDegrees=no

Units are S.I. units (second, meters, Newtons, ...)
If the header above contains a line with 'inDegrees', this indicates whether rotational values are in degrees (yes) or radians (no).

endheader
time	pelvis_tilt	pelvis_list	pelvis_rotation	pelvis_tx	pelvis_ty	pelvis_tz	hip_flexion_r	hip_adduction_r	hip_rotation_r	knee_angle_r	ankle_angle_r	subtalar_angle_r	mtp_angle_r	hip_flexion_l	hip_adduction_l	hip_rotation_l	knee_angle_l	ankle_angle_l	subtalar_angle_l	mtp_angle_l	lumbar_extension	lumbar_bending	lumbar_rotation	arm_flex_r	arm_add_r	arm_rot_r	elbow_flex_r	pro_sup_r	arm_flex_l	arm_add_l	arm_rot_l	elbow_flex_l	pro_sup_l
0.39	0.110815	-0.032604	0.106889	0.329824	1.16097	-0.199622	-0.153683	0.1059	-0.246968	0.0882831	0.160736	0.160484	-0.0404496	0.384553	-0.0611625	-0.117947	0.503774	-0.0999187	-0.15169	-0.107493	-0.337807	0.150399	0.00610513	-0.0525721	-0.223894	-0.260756	0.827679	2.12506	-0.165718	-0.133257	-0.128546	0.907435	2.08911
0.4	0.110204	-0.0329623	0.105224	0.339245	1.15974	-0.19944	-0.164627	0.108079	-0.24197	0.0848976	0.167947	0.158737	-0.0405536	0.381733	-0.0575997	-0.128697	0.453469	-0.0937711	-0.119768	-0.107501	-0.339113	0.149371	0.00528113	-0.0486483	-0.224771	-0.260886	0.835716	2.12765	-0.163441	-0.134113	-0.129913	0.904232	2.09589
0.41	0.109816	-0.0333061	0.103696	0.348752	1.15843	-0.199295	-0.175656	0.11017	-0.237011	0.0819041	0.175265	0.156905	-0.0406576	0.377831	-0.0535788	-0.139241	0.403618	-0.0879885	-0.0879088	-0.107509	-0.340491	0.148271	0.00419424	-0.0450871	-0.225525	-0.260616	0.843683	2.12977	-0.160973	-0.135027	-0.130946	0.900223	2.10214
0.42	0.109628	-0.0335689	0.102278	0.358353	1.15705	-0.199189	-0.186754	0.112073	-0.232284	0.0793144	0.18269	0.155267	-0.0407616	0.372974	-0.0490287	-0.149353	0.354568	-0.0825929	-0.0566778	-0.107518	-0.341918	0.147023	0.00288755	-0.0418964	-0.226147	-0.259986	0.851491	2.13137	-0.158329	-0.135966	-0.131618	0.89551	2.10725
0.43	0.109627	-0.0336928	0.100934	0.368054	1.15561	-0.199121	-0.19791	0.113708	-0.227951	0.077144	0.19021	0.154059	-0.0408656	0.367308	-0.0439313	-0.158868	0.306727	-0.0776111	-0.0265599	-0.107526	-0.34339	0.145554	0.00140854	-0.0390829	-0.226613	-0.259062	0.859055	2.13247	-0.155536	-0.136895	-0.131959	0.890216	2.11081
0.44	0.109803	-0.0336429	0.0996284	0.377858	1.15412	-0.199086	-0.209109	0.115023	-0.224135	0.0754142	0.197795	0.153448	-0.0409696	0.361019	-0.0383362	-0.167701	0.260591	-0.0730645	0.00204412	-0.107534	-0.344913	0.143812	-0.000195446	-0.0366517	-0.226896	-0.257928	0.866292	2.1332	-0.152631	-0.13778	-0.132048	0.884475	2.11268
0.45	0.110147	-0.0334149	0.0983306	0.387765	1.15259	-0.199076	-0.220325	0.116007	-0.220906	0.0741563	0.205393	0.153506	-0.0410737	0.354336	-0.0323621	-0.175848	0.21675	-0.0689551	0.0288081	-0.107543	-0.346499	0.141775	-0.00188194	-0.0346058	-0.226965	-0.256674	0.873128	2.13376	-0.149658	-0.138595	-0.132007	0.87842	2.113
0.46	0.110644	-0.033035	0.0970271	0.397772	1.15102	-0.199085	-0.231511	0.116689	-0.218284	0.0734155	0.212934	0.154205	-0.0411778	0.347529	-0.0261857	-0.183367	0.175876	-0.0652512	0.0534609	-0.107552	-0.348157	0.139451	-0.0036171	-0.0329461	-0.226792	-0.255386	0.879492	2.13432	-0.146662	-0.139313	-0.131983	0.872167	2.11213
0.47	0.111274	-0.0325535	0.0957211	0.407872	1.14944	-0.199102	-0.242594	0.117126	-0.216245	0.0732555	0.220334	0.155419	-0.0412819	0.340896	-0.0200209	-0.190334	0.138681	-0.0618797	0.0757642	-0.10756	-0.349886	0.136874	-0.00537744	-0.0316717	-0.226357	-0.254131	0.885318	2.13506	-0.143687	-0.139921	-0.132121	0.865817	2.11055
0.48	0.112008	-0.0320333	0.0944309	0.418063	1.14784	-0.19912	-0.25348	0.117391	-0.214728	0.0737594	0.227501	0.156942	-0.041386	0.334727	-0.0140944	-0.196809	0.105865	-0.0587219	0.0954979	-0.107569	-0.351676	0.134098	-0.00714819	-0.0307803	-0.225648	-0.252955	0.890548	2.13605	-0.140771	-0.14041	-0.132548	0.859455	2.10878
0.49	0.112811	-0.0315394	0.093183	0.428339	1.14624	-0.199132	-0.264059	0.117561	-0.213643	0.0750277	0.234341	0.158517	-0.0414901	0.329284	-0.00862559	-0.202804	0.0780622	-0.0556147	0.112462	-0.107578	-0.353508	0.131181	-0.0089185	-0.0302706	-0.224665	-0.251879	0.895128	2.13735	-0.137947	-0.140785	-0.133346	0.85315	2.10725
0.5	0.113651	-0.0311306	0.0920015	0.4387	1.14465	-0.199132	-0.274219	0.117701	-0.212882	0.0771729	0.240764	0.159864	-0.0415942	0.324766	-0.00380992	-0.20827	0.0557984	-0.0523567	0.126496	-0.107587	-0.355352	0.128183	-0.0106741	-0.030144	-0.223416	-0.250894	0.89901	2.13893	-0.135248	-0.14106	-0.134548	0.846964	2.10624
0.51	0.114497	-0.0308533	0.0908971	0.449149	1.14308	-0.199116	-0.283857	0.117862	-0.212319	0.0803097	0.246686	0.16071	-0.0416984	0.321294	0.000193207	-0.213101	0.0394465	-0.048723	0.137506	-0.107596	-0.357172	0.125154	-0.0123895	-0.0304062	-0.221922	-0.24997	0.902157	2.14071	-0.132706	-0.141254	-0.136135	0.840957	2.10589
0.52	0.115333	-0.0307383	0.0898575	0.459695	1.14153	-0.199084	-0.292897	0.118067	-0.211814	0.0845433	0.25203	0.160818	-0.0418025	0.318893	0.00327148	-0.217158	0.0291931	-0.0444889	0.145489	-0.107605	-0.358933	0.122127	-0.0140215	-0.0310699	-0.220214	-0.249061	0.904534	2.14262	-0.13036	-0.141392	-0.138051	0.835178	2.10616
0.53	0.116158	-0.0307965	0.088842	0.47035	1.14003	-0.199034	-0.301302	0.11831	-0.21122	0.0899561	0.25672	0.160008	-0.0419067	0.317484	0.00537059	-0.22028	0.0250054	-0.039466	0.150542	-0.107614	-0.360598	0.119113	-0.0155075	-0.0321551	-0.21833	-0.248109	0.906119	2.14457	-0.128255	-0.141494	-0.140217	0.829674	2.10691
0.54	0.116985	-0.0310159	0.087781	0.481134	1.13858	-0.198966	-0.309079	0.118556	-0.21039	0.0965962	0.260674	0.158177	-0.0420109	0.316884	0.00650535	-0.222309	0.0266038	-0.0335484	0.15286	-0.107623	-0.362135	0.116097	-0.0167696	-0.0336899	-0.216311	-0.24706	0.906891	2.14652	-0.126443	-0.141573	-0.142559	0.824475	2.10797
0.55	0.117845	-0.0313568	0.0865828	0.492068	1.13718	-0.198883	-0.316283	0.118729	-0.209187	0.10447	0.263812	0.155305	-0.042115	0.316814	0.00677048	-0.22311	0.0334438	-0.0267657	0.15271	-0.107633	-0.363514	0.113031	-0.0177258	-0.0357087	-0.214196	-0.245868	0.906835	2.14842	-0.124986	-0.141633	-0.145026	0.819597	2.10915
0.56	0.118782	-0.0317465	0.0851453	0.503178	1.13585	-0.198786	-0.323011	0.118717	-0.207511	0.113544	0.266044	0.151472	-0.0422192	0.316912	0.00634793	-0.222583	0.0447144	-0.0193345	0.1504	-0.107642	-0.364713	0.10983	-0.0183071	-0.0382481	-0.212022	-0.244499	0.905937	2.15026	-0.123949	-0.141665	-0.147599	0.815039	2.11035
0.57	0.119849	-0.0320781	0.0833737	0.514489	1.13458	-0.198682	-0.329392	0.118369	-0.205316	0.123754	0.267282	0.14685	-0.0423234	0.316762	0.00550636	-0.220682	0.0593657	-0.0116981	0.146242	-0.107652	-0.365719	0.106376	-0.0184773	-0.0413402	-0.209816	-0.242937	0.904182	2.15205	-0.1234	-0.141655	-0.150299	0.810781	2.11152
0.58	0.121092	-0.0322156	0.0812004	0.52602	1.13338	-0.198576	-0.335571	0.117501	-0.202642	0.135031	0.267438	0.141691	-0.0424276	0.315922	0.00458921	-0.217427	0.0761721	-0.00453542	0.140511	-0.107661	-0.366535	0.102517	-0.0182536	-0.0450057	-0.207589	-0.241176	0.901551	2.1538	-0.1234	-0.14159	-0.153173	0.806792	2.1127
0.59	0.122592	-0.0319567	0.078608	0.537793	1.13227	-0.198483	-0.341672	0.115912	-0.199624	0.147319	0.266421	0.136303	-0.0425318	0.313989	0.00397132	-0.212903	0.093829	0.00127834	0.133406	-0.107671	-0.367169	0.0981023	-0.017714	-0.049244	-0.205341	-0.239225	0.89802	2.15551	-0.123998	-0.14146	-0.156275	0.803033	2.11394
